# xmcd
#
# Track frame offsets:
#	150
#	19740
#	38253
#	61443
#	83350
#	103371
#	117504
#	132642
#
# Disc length: 2070 seconds
#
# Revision: 1
# Processed by: cddbd v1.5.2PL0 Copyright (c) Steve Scherf et al.
# Submitted via: audiograbber 1.83.01
#
DISCID=64081408
DTITLE=Various Artist - Rookie - Country-Rock and Americana Today
DYEAR=2013
DGENRE=Country
TTITLE0=Israel Nash Gripka - Drown
TTITLE1=Reckless Kelly - The Girl I Knew
TTITLE2=Shooter Jennings - Mama, It's Just My Medicine
TTITLE3=The Band Of Heathens - Shotgun
TTITLE4=Poco - Neil Young
TTITLE5=Jason Isbell - We've Met
TTITLE6=Kris Kristofferson - Mama Stewart
TTITLE7=I See Hawks in L.A. - Sky Island
EXTD=Beilage zu Rookie - Nr. 3 - Das Magazin fürCountry, Folk and Americana
EXTT0=
EXTT1=
EXTT2=
EXTT3=
EXTT4=
EXTT5=
EXTT6=
EXTT7=
PLAYORDER=
